<svg width="49" height="49" viewBox="0 0 49 49" fill="none" xmlns="http://www.w3.org/2000/svg">
<path d="M43.4583 5.54167H38.0417V0.125H10.9583V5.54167H5.54167C2.5625 5.54167 0.125 7.97917 0.125 10.9583V13.6667C0.125 20.5729 5.325 26.2062 12.0146 27.0458C12.8711 29.0753 14.2089 30.8658 15.9123 32.2625C17.6158 33.6593 19.6337 34.6203 21.7917 35.0625V43.4583H10.9583V48.875H38.0417V43.4583H27.2083V35.0625C29.3663 34.6203 31.3842 33.6593 33.0877 32.2625C34.7911 30.8658 36.1289 29.0753 36.9854 27.0458C43.675 26.2062 48.875 20.5729 48.875 13.6667V10.9583C48.875 7.97917 46.4375 5.54167 43.4583 5.54167ZM5.54167 13.6667V10.9583H10.9583V21.3042C7.81667 20.1667 5.54167 17.1875 5.54167 13.6667ZM24.5 29.9167C20.0312 29.9167 16.375 26.2604 16.375 21.7917V5.54167H32.625V21.7917C32.625 26.2604 28.9688 29.9167 24.5 29.9167ZM43.4583 13.6667C43.4583 17.1875 41.1833 20.1667 38.0417 21.3042V10.9583H43.4583V13.6667Z" fill="#EF443B"/>
</svg>
