<svg width="65" height="65" viewBox="0 0 65 65" fill="none" xmlns="http://www.w3.org/2000/svg">
<path d="M48.75 21.6667H46.0417V16.25C46.0417 8.775 39.975 2.70833 32.5 2.70833C25.025 2.70833 18.9583 8.775 18.9583 16.25V21.6667H16.25C13.2708 21.6667 10.8333 24.1042 10.8333 27.0833V54.1667C10.8333 57.1458 13.2708 59.5833 16.25 59.5833H48.75C51.7292 59.5833 54.1667 57.1458 54.1667 54.1667V27.0833C54.1667 24.1042 51.7292 21.6667 48.75 21.6667ZM24.375 16.25C24.375 11.7542 28.0042 8.125 32.5 8.125C36.9958 8.125 40.625 11.7542 40.625 16.25V21.6667H24.375V16.25ZM48.75 54.1667H16.25V27.0833H48.75V54.1667ZM32.5 46.0417C35.4792 46.0417 37.9167 43.6042 37.9167 40.625C37.9167 37.6458 35.4792 35.2083 32.5 35.2083C29.5208 35.2083 27.0833 37.6458 27.0833 40.625C27.0833 43.6042 29.5208 46.0417 32.5 46.0417Z" fill="#EF443B"/>
</svg>
