<svg width="65" height="65" viewBox="0 0 65 65" fill="none" xmlns="http://www.w3.org/2000/svg">
<path d="M31.9584 29.5208C25.8104 27.9229 23.8334 26.2708 23.8334 23.6979C23.8334 20.7458 26.5688 18.6875 31.1459 18.6875C35.9667 18.6875 37.7542 20.9896 37.9167 24.375H43.9021C43.7125 19.7167 40.8688 15.4375 35.2084 14.0563V8.125H27.0834V13.975C21.8292 15.1125 17.6042 18.525 17.6042 23.7521C17.6042 30.0083 22.7771 33.1229 30.3334 34.9375C37.1042 36.5625 38.4584 38.9458 38.4584 41.4646C38.4584 43.3333 37.1313 46.3125 31.1459 46.3125C25.5667 46.3125 23.3729 43.8208 23.075 40.625H17.1167C17.4417 46.5562 21.8834 49.8875 27.0834 50.9979V56.875H35.2084V51.0521C40.4896 50.05 44.6875 46.9896 44.6875 41.4375C44.6875 33.7458 38.1063 31.1187 31.9584 29.5208Z" fill="#EF443B"/>
</svg>
