<svg width="65" height="65" viewBox="0 0 65 65" fill="none" xmlns="http://www.w3.org/2000/svg">
<path d="M54.1667 16.2501H48.2625C48.5604 15.4105 48.75 14.4896 48.75 13.5417C48.7529 11.7944 48.1917 10.0928 47.1498 8.69001C46.108 7.28725 44.6411 6.25829 42.9674 5.75619C41.2938 5.25409 39.5028 5.30568 37.8608 5.90329C36.2188 6.50089 34.8136 7.61258 33.8542 9.07298L32.5 10.8876L31.1458 9.0459C29.6833 6.87923 27.2188 5.41673 24.375 5.41673C19.8792 5.41673 16.25 9.0459 16.25 13.5417C16.25 14.4896 16.4396 15.4105 16.7375 16.2501H10.8333C7.82709 16.2501 5.44376 18.6605 5.44376 21.6667L5.41667 51.4584C5.41667 54.4647 7.82709 56.8751 10.8333 56.8751H54.1667C57.1729 56.8751 59.5833 54.4647 59.5833 51.4584V21.6667C59.5833 18.6605 57.1729 16.2501 54.1667 16.2501ZM40.625 10.8334C42.1146 10.8334 43.3333 12.0521 43.3333 13.5417C43.3333 15.0313 42.1146 16.2501 40.625 16.2501C39.1354 16.2501 37.9167 15.0313 37.9167 13.5417C37.9167 12.0521 39.1354 10.8334 40.625 10.8334ZM24.375 10.8334C25.8646 10.8334 27.0833 12.0521 27.0833 13.5417C27.0833 15.0313 25.8646 16.2501 24.375 16.2501C22.8854 16.2501 21.6667 15.0313 21.6667 13.5417C21.6667 12.0521 22.8854 10.8334 24.375 10.8334ZM54.1667 51.4584H10.8333V46.0417H54.1667V51.4584ZM54.1667 37.9167H10.8333V21.6667H24.5917L18.9583 29.3313L23.3458 32.5001L29.7917 23.7251L32.5 20.0417L35.2083 23.7251L41.6542 32.5001L46.0417 29.3313L40.4083 21.6667H54.1667V37.9167Z" fill="#EF443B"/>
</svg>
