<svg width="65" height="65" viewBox="0 0 65 65" fill="none" xmlns="http://www.w3.org/2000/svg">
<path d="M51.4583 37.9167V48.75H46.0417V37.9167H51.4583ZM18.9583 37.9167V48.75H16.25C14.7604 48.75 13.5417 47.5312 13.5417 46.0417V37.9167H18.9583ZM32.5 2.70833C26.0353 2.70833 19.8355 5.2764 15.2643 9.8476C10.6931 14.4188 8.125 20.6187 8.125 27.0833V46.0417C8.125 50.5375 11.7542 54.1667 16.25 54.1667H24.375V32.5H13.5417V27.0833C13.5417 16.6021 22.0188 8.12499 32.5 8.12499C42.9812 8.12499 51.4583 16.6021 51.4583 27.0833V32.5H40.625V54.1667H51.4583V56.875H32.5V62.2917H48.75C53.2458 62.2917 56.875 58.6625 56.875 54.1667V27.0833C56.875 20.6187 54.3069 14.4188 49.7357 9.8476C45.1645 5.2764 38.9647 2.70833 32.5 2.70833Z" fill="#EF443B"/>
</svg>
