<svg width="18" height="18" viewBox="0 0 18 18" fill="none" xmlns="http://www.w3.org/2000/svg">
<path d="M8.96495 6.85352L8.59613 8.33222C9.01427 8.43644 10.3031 8.8616 10.5119 8.02478C10.7295 7.15232 9.38309 6.95774 8.96495 6.85352Z" fill="white"/>
<path d="M8.41022 9.07861L8.00342 10.7091C8.50544 10.8338 10.054 11.3309 10.2829 10.4112C10.5222 9.45211 8.91224 9.20389 8.41022 9.07861Z" fill="white"/>
<path d="M10.6321 2.45177C7.01662 1.55015 3.35398 3.75119 2.45272 7.36775C1.55074 10.9838 3.7516 14.6466 7.36672 15.5482C10.9833 16.4498 14.6459 14.2491 15.5475 10.6329C16.4492 7.01657 14.2485 3.35321 10.6321 2.45177ZM11.9753 8.03843C11.8779 8.69597 11.5136 9.01439 11.0295 9.12581C11.6939 9.47159 12.0321 10.0022 11.7099 10.922C11.3103 12.0641 10.3605 12.1606 9.09778 11.9216L8.79124 13.1499L8.05054 12.9654L8.35294 11.7534C8.15565 11.7046 7.9589 11.6536 7.76272 11.6004L7.45924 12.818L6.71944 12.6333L7.02598 11.4028C6.853 11.3585 6.67732 11.3114 6.49804 11.2665L5.53432 11.0261L5.90188 10.1784C5.90188 10.1784 6.44764 10.3237 6.44026 10.3129C6.64996 10.3649 6.74284 10.2281 6.77956 10.1369L7.26394 8.19521C7.29112 8.20187 7.31758 8.20835 7.34206 8.21465C7.31699 8.20479 7.29132 8.19656 7.2652 8.18999L7.61062 6.80381C7.61962 6.64649 7.56544 6.44813 7.26556 6.37325C7.27726 6.36533 6.72772 6.23951 6.72772 6.23951L6.92482 5.44841L7.94632 5.70347L7.94542 5.70725C8.09896 5.74541 8.25718 5.78159 8.41846 5.81831L8.72194 4.60205L9.4621 4.78655L9.16474 5.97905C9.36346 6.02441 9.56344 6.07013 9.7582 6.11855L10.0536 4.93397L10.7941 5.11847L10.4908 6.33527C11.4257 6.65729 12.1095 7.14005 11.9753 8.03843Z" fill="white"/>
</svg>
