<svg width="18" height="18" viewBox="0 0 18 18" fill="none" xmlns="http://www.w3.org/2000/svg">
<path d="M14.7647 2.52002H3.23534C3.04563 2.52002 2.86368 2.59538 2.72953 2.72953C2.59538 2.86368 2.52002 3.04563 2.52002 3.23534V14.7649C2.52007 14.9546 2.59545 15.1365 2.7296 15.2706C2.86374 15.4047 3.04566 15.48 3.23534 15.48H9.44228V10.4613H7.75334V8.50538H9.44228V7.06286C9.44228 5.38886 10.4647 4.47752 11.958 4.47752C12.6733 4.47752 13.288 4.53062 13.4673 4.55456V6.30398L12.4315 6.30452C11.6194 6.30452 11.4622 6.69044 11.4622 7.25672V8.50556H13.399L13.1469 10.4614H11.4622V15.48H14.7649C14.9546 15.48 15.1365 15.4046 15.2706 15.2704C15.4047 15.1363 15.48 14.9544 15.48 14.7647V3.23534C15.48 3.04563 15.4047 2.86368 15.2705 2.72953C15.1364 2.59538 14.9544 2.52002 14.7647 2.52002Z" fill="white"/>
</svg>
