<svg width="18" height="18" viewBox="0 0 18 18" fill="none" xmlns="http://www.w3.org/2000/svg">
<path d="M14.52 2.52002H3.47669C2.94857 2.52002 2.51999 2.93852 2.51999 3.45386V14.5449C2.51999 15.061 2.94857 15.48 3.47669 15.48H14.52C15.0485 15.48 15.48 15.061 15.48 14.5449V3.45386C15.48 2.93852 15.0485 2.52002 14.52 2.52002ZM6.36371 13.5637H4.44059V7.37912H6.36371V13.5637ZM5.40215 6.53348C5.25577 6.53348 5.11082 6.50464 4.9756 6.4486C4.84037 6.39256 4.71751 6.31042 4.61404 6.20688C4.51056 6.10334 4.42851 5.98043 4.37256 5.84517C4.3166 5.7099 4.28785 5.56494 4.28795 5.41856C4.28795 5.12308 4.40533 4.8397 4.61426 4.63076C4.8232 4.42183 5.10658 4.30445 5.40206 4.30445C5.69754 4.30445 5.98092 4.42183 6.18985 4.63076C6.39879 4.8397 6.51617 5.12308 6.51617 5.41856C6.51617 5.7141 6.39883 5.99755 6.18993 6.20661C5.98104 6.41567 5.69769 6.53324 5.40215 6.53348ZM13.563 13.5637H11.6429V10.5563C11.6429 9.83882 11.6289 8.91632 10.6437 8.91632C9.64331 8.91632 9.49085 9.6977 9.49085 10.5043V13.5639H7.56935V7.37912H9.41345V8.22368H9.43973C9.69641 7.73768 10.3235 7.22486 11.2588 7.22486C13.2039 7.22486 13.5632 8.50538 13.5632 10.1713V13.5637H13.563Z" fill="white"/>
</svg>
